<svg width="44" height="52" viewBox="0 0 44 52" fill="none" xmlns="http://www.w3.org/2000/svg">
<g clip-path="url(#clip0)">
<path d="M28.708 13.9121C28.3148 13.2908 28.1706 12.5441 28.3042 11.8211C28.4378 11.0982 28.8395 10.4523 29.4288 10.0127C29.4776 9.97607 29.5107 9.92237 29.5216 9.86234C29.5325 9.80232 29.5202 9.7404 29.4874 9.68901L27.402 6.3915C27.3675 6.33706 27.3128 6.29855 27.2499 6.28443C27.187 6.27031 27.1211 6.28174 27.0667 6.3162L21.8155 9.64129C21.6218 9.76393 21.4593 9.93003 21.3409 10.1264V10.1264C21.2227 10.3233 21.0602 10.49 20.8664 10.6132C20.6726 10.7364 20.4527 10.8128 20.2242 10.8362V10.8362C19.9959 10.8592 19.7761 10.9351 19.5821 11.0576L6.11591 19.5825C6.06147 19.617 6.02296 19.6717 6.00884 19.7346C5.99472 19.7975 6.00615 19.8634 6.04061 19.9178L8.12671 23.2123C8.15912 23.264 8.20986 23.3015 8.26877 23.3173C8.32768 23.3332 8.3904 23.3262 8.44436 23.2977C9.09373 22.9524 9.84955 22.8652 10.5605 23.0534C11.2715 23.2416 11.8851 23.6915 12.2786 24.3128C12.672 24.9342 12.8163 25.6812 12.6824 26.4044C12.5486 27.1276 12.1465 27.7735 11.5567 28.2129C11.5079 28.2495 11.4748 28.3032 11.4639 28.3632C11.453 28.4232 11.4653 28.4852 11.4981 28.5366L13.5842 31.831C13.6187 31.8855 13.6734 31.924 13.7363 31.9381C13.7992 31.9522 13.8651 31.9408 13.9195 31.9063L27.3869 23.3791C27.5806 23.2562 27.7431 23.0899 27.8616 22.8934V22.8934C27.9798 22.6965 28.1423 22.5298 28.3361 22.4066C28.53 22.2834 28.7499 22.207 28.9784 22.1836V22.1836C29.2065 22.1606 29.4261 22.0847 29.6198 21.962L34.8709 18.6369C34.9254 18.6025 34.9639 18.5478 34.978 18.4849C34.9921 18.422 34.9807 18.3561 34.9462 18.3017L32.8602 15.0072C32.8277 14.9555 32.777 14.918 32.7181 14.9021C32.6592 14.8863 32.5965 14.8933 32.5425 14.9218C31.8937 15.2675 31.1383 15.3555 30.4274 15.1683C29.7165 14.9811 29.1024 14.5325 28.708 13.9121V13.9121Z" stroke="#0269D9" stroke-miterlimit="10"/>
<path d="M21.7394 11.9912L20.959 10.7587" stroke="#0269D9" stroke-miterlimit="10" stroke-linecap="round"/>
<path d="M23.8204 15.2773L23.2998 14.456" stroke="#0269D9" stroke-miterlimit="10" stroke-linecap="round"/>
<path d="M25.9007 18.5642L25.3809 17.7424" stroke="#0269D9" stroke-miterlimit="10" stroke-linecap="round"/>
<path d="M28.2433 22.2613L27.4629 21.0287" stroke="#0269D9" stroke-miterlimit="10" stroke-linecap="round"/>
</g>
<g clip-path="url(#clip1)">
<path d="M30.7646 33.9973C31.0304 33.298 31.5503 32.7248 32.2205 32.3923C32.8906 32.0598 33.6616 31.9926 34.3792 32.204C34.4388 32.2214 34.5028 32.2156 34.5583 32.1878C34.6138 32.1601 34.6567 32.1123 34.6785 32.0542L36.0903 28.3437C36.1136 28.2824 36.1115 28.2143 36.0846 28.1545C36.0578 28.0947 36.0082 28.048 35.9469 28.0247L30.0347 25.7791C29.8166 25.6962 29.5822 25.6653 29.3501 25.6888V25.6888C29.1176 25.7127 28.8827 25.6822 28.6641 25.5996C28.4455 25.5169 28.2491 25.3845 28.0906 25.2128V25.2128C27.9325 25.041 27.7366 24.9083 27.5184 24.8252L12.3585 19.065C12.2972 19.0418 12.2292 19.0438 12.1694 19.0707C12.1096 19.0976 12.0629 19.1471 12.0396 19.2084L10.6307 22.9176C10.6084 22.9755 10.6088 23.0397 10.6319 23.0974C10.655 23.155 10.6989 23.2018 10.755 23.2284C11.4325 23.5463 11.9649 24.1084 12.2456 24.8021C12.5263 25.4958 12.5346 26.27 12.2689 26.9696C12.0031 27.6691 11.483 28.2426 10.8125 28.575C10.142 28.9074 9.37075 28.9743 8.65305 28.7624C8.59346 28.745 8.5295 28.7508 8.474 28.7785C8.41849 28.8063 8.37554 28.8541 8.35376 28.9122L6.94487 32.6214C6.9216 32.6827 6.92363 32.7508 6.95051 32.8106C6.97739 32.8704 7.02692 32.9171 7.08822 32.9404L22.2506 38.7001C22.469 38.7828 22.7036 38.8136 22.9359 38.7901V38.7901C23.1683 38.7661 23.4032 38.7967 23.6218 38.8793C23.8405 38.9619 24.0368 39.0944 24.1953 39.2661V39.2661C24.3533 39.4378 24.5492 39.5703 24.7673 39.6531L30.6795 41.8988C30.7408 41.922 30.8089 41.92 30.8687 41.8931C30.9285 41.8662 30.9752 41.8167 30.9985 41.7554L32.4073 38.0462C32.4296 37.9883 32.4292 37.924 32.4062 37.8664C32.3831 37.8088 32.3391 37.762 32.283 37.7354C31.6056 37.4182 31.0728 36.857 30.7913 36.1639C30.5098 35.4708 30.5003 34.6971 30.7646 33.9973V33.9973Z" stroke="#0269D9" stroke-miterlimit="10"/>
<path d="M28.0754 27.1523L28.6025 25.7646" stroke="#0269D9" stroke-miterlimit="10" stroke-linecap="round"/>
<path d="M26.6696 30.8514L27.0205 29.9262" stroke="#0269D9" stroke-miterlimit="10" stroke-linecap="round"/>
<path d="M25.2644 34.5515L25.6162 33.6266" stroke="#0269D9" stroke-miterlimit="10" stroke-linecap="round"/>
<path d="M23.6838 38.7147L24.2109 37.327" stroke="#0269D9" stroke-miterlimit="10" stroke-linecap="round"/>
<path d="M18.3719 23.2577C17.9725 26.2178 17.5732 20.2976 18.7713 24.9492C19.0908 26.6407 17.5732 28.1912 16.7744 28.755L17.9725 21.5662L23.9632 24.1034M23.9632 24.1034L18.3719 22.412M23.9632 24.1034L21.5669 25.372L18.7713 27.4864L18.3719 27.4864L17.1738 27.9093L17.5732 27.4864L17.9725 25.7949L18.3719 25.7949L17.9725 26.2178L17.5732 25.7949L17.9725 24.5263L17.9725 24.9492L19.5701 25.7949L19.1707 25.7949L19.1707 26.6407L22.3657 24.5263L19.9694 24.1034L20.3688 24.5263M18.3719 22.412L23.1644 24.5263L18.7713 23.2577L18.3719 22.412ZM21.5669 24.9492L21.9663 24.9492M21.9663 24.9492L20.7682 24.9492L20.3688 24.9492L19.9694 24.5263L19.5701 24.1034L19.1707 24.1034L18.7713 24.1034L19.1707 24.5263L19.5701 24.9492L19.5701 25.372L20.3688 25.372L21.9663 24.9492ZM22.3657 24.9492L20.3688 24.5263M20.3688 24.5263L20.7682 24.5263" stroke="#0269D9" stroke-opacity="0.1"/>
<path d="M12.5811 20.3681C14.0188 28.5154 14.3782 30.1528 14.3782 29.9531L15.5764 25.7597L17.3736 23.3634" stroke="#0269D9" stroke-opacity="0.1"/>
<path d="M15.5762 28.755L16.1752 28.755L16.1752 27.5569L16.1752 26.3587L16.7743 25.7597L16.7743 24.5615L16.7743 23.3634L16.7743 22.1653" stroke="#0269D9" stroke-opacity="0.1"/>
<path d="M14.9766 20.9672L16.7738 22.1653L17.3728 22.1653L15.5756 22.7644" stroke="#0269D9" stroke-opacity="0.1"/>
<path d="M14.977 23.9625L14.3779 24.5616L14.3779 22.7644" stroke="#0269D9" stroke-opacity="0.1"/>
<path d="M15.5761 23.3635L16.1751 23.3635L14.3779 24.5616" stroke="#0269D9" stroke-opacity="0.1"/>
<path d="M14.9772 25.1606L14.3781 25.1606L13.7791 26.3588C14.2583 26.3588 15.5763 25.1606 16.1753 24.5616L14.9772 22.1653L13.7791 20.3681L13.7791 21.5662M13.7791 21.5662L13.7791 22.1653L14.9772 20.9672L12.5809 19.769L11.3828 22.7644L11.9819 22.7644L12.5809 23.3634L16.7744 25.7597L14.3781 31.1513L15.5763 29.3541L13.7791 30.5522L13.18 28.755L13.18 28.156L14.3781 22.7644L14.3781 22.1653L13.18 22.1653L13.18 21.5662L12.5809 20.9672L11.9819 22.1653L13.7791 21.5662Z" stroke="#0269D9" stroke-opacity="0.1"/>
<path d="M14.3779 27.557C14.4415 27.3979 14.5123 27.2257 14.5843 27.0563M14.977 26.9579C14.9082 27.2332 14.8467 27.4706 14.792 27.6748M14.977 26.9579L15.5761 26.9578L14.5843 27.0563M14.977 26.9579C15.3799 25.3463 14.9642 26.1622 14.5843 27.0563M14.792 27.6748C14.4658 28.892 14.3779 28.9261 14.3779 28.755L14.792 27.6748Z" stroke="#0269D9" stroke-opacity="0.1"/>
<path d="M14.3779 27.557L14.3779 26.9579" stroke="#0269D9" stroke-opacity="0.1"/>
<path d="M14.3779 26.9579L14.977 26.9579" stroke="#0269D9" stroke-opacity="0.1"/>
<path d="M14.3783 22.1653L12.5811 28.755M12.5811 28.755L12.5811 28.1559L13.7792 30.5522L12.5811 28.755Z" stroke="#0269D9" stroke-opacity="0.1"/>
<path d="M12.5811 28.7551C13.1801 28.9548 14.3782 29.3542 14.3782 29.3542C14.8575 28.8749 14.9773 28.7551 14.9773 28.7551L14.9773 28.156L14.3783 28.7551L16.1754 29.3542L16.1754 28.7551L16.1754 28.156L16.1754 27.557L16.7745 27.557L14.9773 26.3588L13.7792 29.9532L14.3782 30.5523L14.3782 31.1513L14.9773 30.5523L14.9773 29.9532L15.5764 29.9532" stroke="#0269D9" stroke-opacity="0.1"/>
<path d="M13.7099 27.5569C13.3105 27.7566 12.7514 28.156 13.7099 28.156" stroke="#0269D9" stroke-opacity="0.1"/>
<path d="M15.576 29.9532L16.175 29.9532L13.7788 30.5523L13.7788 31.1514L13.1797 29.9532" stroke="#0269D9" stroke-opacity="0.1"/>
<path d="M13.1801 29.3541L13.1801 29.9532L12.5811 28.7551" stroke="#0269D9" stroke-opacity="0.1"/>
<path d="M11.9819 28.755L12.5809 28.156L13.18 24.5616L13.7791 25.1606L14.3781 24.5616L13.7791 26.3588L13.7791 26.9578L13.18 23.3634L13.18 22.7644L12.5809 22.1653L11.9819 22.1653L12.5809 23.3634L12.5809 23.9625L11.3828 22.7644L11.3828 22.1653L12.5809 20.3681L12.5809 19.769" stroke="#0269D9" stroke-opacity="0.1"/>
<path d="M13.7792 20.3681L12.5811 19.769L14.3783 20.9672L14.9773 20.9672L15.5764 20.9672M15.5764 20.9672L13.7792 21.5662L12.5811 20.9672L13.7792 22.1653L14.9773 23.3634L15.5764 22.1653L14.9773 22.1653M15.5764 20.9672L16.1754 21.5662L14.9773 22.1653M14.9773 22.1653L14.3783 22.1653L17.3736 22.1653L16.7745 21.5662" stroke="#0269D9" stroke-opacity="0.1"/>
<path d="M16.774 21.5662L18.5712 22.7644M18.5712 22.7644L12.5805 19.769C12.1013 19.769 11.9814 19.769 11.9814 19.769L12.5805 19.17L12.5805 20.3681L18.5712 24.5616L20.9674 25.7597L20.9674 23.9625L22.7646 23.9625L19.1702 23.9625L19.1702 22.7644M18.5712 22.7644L19.1702 22.7644M19.1702 22.7644L17.373 23.3634L18.5712 23.3634L16.774 25.7597L16.1749 25.7597L15.5758 26.3588L16.1749 24.5616L17.373 25.1606L17.373 25.7597L17.373 26.9578L19.7693 26.9578L20.3684 26.9578L21.5665 25.7597L22.1656 25.7597L24.5618 24.5616M20.9674 22.7644L17.9721 26.3588L18.5712 26.9578L17.373 28.755L16.774 28.755L19.1702 27.5569L19.7693 26.3588L20.3684 26.3588L19.1702 25.7597L17.373 24.5616L23.3637 24.5616L23.9627 24.5616L24.5618 24.5616M24.5618 24.5616L23.3637 23.9625L22.1656 23.3634L19.1702 22.1653L21.5665 23.3634L20.9674 23.3634L19.7693 22.7644M13.1796 23.3634L14.3777 24.5616L14.9768 24.5616L13.7786 23.3634L13.1796 22.7644L16.774 22.7644L17.373 22.7644L18.5712 22.1653L17.373 21.5662L18.5712 26.3588L19.1702 26.3588" stroke="#0269D9" stroke-opacity="0.1"/>
</g>
<defs>
<clipPath id="clip0">
<rect width="31.9903" height="31.9903" fill="white" transform="translate(8.3916) rotate(12.6574)"/>
</clipPath>
<clipPath id="clip1">
<rect width="32.5513" height="32.5513" fill="white" transform="translate(29.6904 8.96527) rotate(65.7985)"/>
</clipPath>
</defs>
</svg>
