<svg width="77" height="77" viewBox="0 0 77 77" fill="none" xmlns="http://www.w3.org/2000/svg">
<g clip-path="url(#clip0)">
<path d="M65.5689 38.4998C65.8095 41.1467 64.0048 43.3123 61.4782 43.3123H15.5189C12.9923 43.3123 11.1876 41.1467 11.4282 38.4998L13.9548 11.7904C14.1954 9.14353 16.4814 6.97791 19.0079 6.97791H57.9892C60.5157 6.97791 62.8017 9.14353 63.0423 11.7904L65.5689 38.4998Z" fill="#B4D7EE"/>
<path d="M10.7061 36.6953H17.9248V46.3203H10.7061V36.6953Z" fill="#3E4347"/>
<path d="M59.0713 36.6953H66.29V46.3203H59.0713V36.6953Z" fill="#3E4347"/>
<path d="M17.563 61.239H24.7817V73.3906H17.563V61.239Z" fill="#3E4347"/>
<path d="M52.2139 61.239H59.4326V73.3906H52.2139V61.239Z" fill="#3E4347"/>
<path d="M49.8094 30.0782C49.4484 33.2063 46.9219 35.8532 44.3953 35.8532H32.6047C29.9578 35.8532 27.5516 33.3266 27.1906 30.0782L25.025 12.5125C24.6641 9.38442 26.4687 6.73755 28.9953 6.73755H47.8844C50.5312 6.73755 52.3359 9.38442 51.8547 12.5125L49.8094 30.0782Z" fill="#428BC1"/>
<path d="M27.6736 70.864C27.4329 70.2625 26.7111 69.6609 26.1095 69.6609H16.4845C15.7626 69.6609 15.1611 70.1421 14.9204 70.864L13.1157 75.7968C12.8751 76.3984 13.2361 77 13.9579 77H28.3954C29.1173 77 29.4782 76.5187 29.2376 75.7968L27.6736 70.864Z" fill="#94989B"/>
<path d="M63.8885 75.7968L62.2041 70.864C61.9635 70.2625 61.2416 69.6609 60.6401 69.6609H51.0151C50.2932 69.6609 49.6916 70.1421 49.451 70.864L47.7666 75.7968C47.526 76.3984 47.8869 77 48.6088 77H63.0463C63.6479 77 64.0088 76.5187 63.8885 75.7968Z" fill="#94989B"/>
<path d="M55.584 7.21875C55.584 9.86563 53.5387 12.0312 51.0121 12.0312H25.8668C23.3402 12.0312 21.2949 9.86563 21.2949 7.21875V4.8125C21.2949 2.16562 23.3402 0 25.8668 0H51.0121C53.5387 0 55.584 2.16562 55.584 4.8125V7.21875Z" fill="#29ABE2"/>
<path d="M18.6476 35.1313L18.2867 32.6047C18.046 31.2813 16.9632 30.1985 15.7601 30.1985H12.5117C11.3085 30.1985 10.2257 31.2813 9.9851 32.6047L9.62416 35.1313C9.38354 36.4547 10.2257 37.5376 11.4288 37.5376H16.8429C18.046 37.5376 18.8882 36.4547 18.6476 35.1313Z" fill="#29ABE2"/>
<path d="M61.9597 43.3125H15.0379C11.3082 43.3125 9.02223 46.9219 9.7441 51.3734L10.2254 54.5016C10.9472 58.9531 14.6769 62.5625 18.2863 62.5625H58.4707C62.2003 62.5625 65.8097 58.9531 66.5316 54.5016L67.1332 51.3734C67.9753 47.0422 65.5691 43.3125 61.9597 43.3125Z" fill="#29ABE2"/>
</g>
<defs>
<clipPath id="clip0">
<rect width="77" height="77" fill="white"/>
</clipPath>
</defs>
</svg>
