<svg width="50" height="50" viewBox="0 0 50 50" fill="none" xmlns="http://www.w3.org/2000/svg">
<g clip-path="url(#clip0)">
<path d="M49.8548 6.12662C34.9318 0.821555 18.7112 0.383383 3.52354 4.87506C2.91984 5.01952 2.35145 5.28416 1.85229 5.65315C1.35313 6.02215 0.933448 6.48795 0.618294 7.02273C0.303139 7.55752 0.0989781 8.15033 0.0179997 8.76576C-0.0629786 9.3812 -0.0191136 10.0066 0.146976 10.6047C0.978226 13.9407 2.19073 17.7735 3.64698 21.2485C3.67198 21.3297 3.71104 21.2907 3.71104 21.2094C3.5001 19.5797 4.75323 17.5219 7.21104 16.7735C19.0227 13.0144 31.7343 13.1827 43.4423 17.2532C43.8741 17.4009 44.3312 17.4606 44.7865 17.4289C45.2418 17.3971 45.6861 17.2746 46.0933 17.0683C46.5005 16.8621 46.8622 16.5765 47.1572 16.2282C47.4523 15.88 47.6746 15.4762 47.811 15.0407C49.2673 10.3532 49.8548 7.17037 50.0001 6.3735C50.0251 6.22506 49.8939 6.16881 49.8548 6.12818V6.12662ZM13.8501 16.4391C12.061 16.8126 9.5876 17.4001 7.73135 18.0157C4.02041 19.2954 4.19229 23.811 6.16885 25.2516C6.31416 24.4141 7.21104 23.2751 8.21104 22.8907C11.9157 21.4344 15.8939 20.5641 19.9157 20.2047C17.872 19.3751 15.8782 18.186 13.8767 16.4376L13.8501 16.4391ZM43.3923 25.4797C38.0609 22.9747 32.2814 21.5639 26.3954 21.3307C20.5094 21.0975 14.6364 22.0466 9.12354 24.1219C7.35635 24.7891 6.2501 26.9391 7.35635 28.9797C9.28891 32.4737 11.4821 35.817 13.9173 38.9813C13.5673 37.7688 14.186 35.5235 16.561 34.7891C23.1298 32.7704 30.022 33.6266 34.6032 35.4813C35.897 36.0016 37.7282 35.686 38.7548 34.1485C40.5055 31.4517 42.0977 28.6553 43.5235 25.7735C43.5876 25.6438 43.5235 25.5469 43.3923 25.4797ZM32.7485 41.6672C30.827 40.6969 29.0697 39.431 27.5407 37.9157C26.8329 37.2079 25.7907 36.1907 24.6923 34.9782C22.1845 34.9782 19.7501 35.2297 17.147 36.061C14.7298 36.8172 14.5032 39.6094 15.561 41.0657C17.3501 43.2954 18.6048 44.4985 20.6064 46.5672C21.6671 47.6077 23.0915 48.1937 24.5773 48.201C26.0631 48.2083 27.4933 47.6363 28.5642 46.6063C30.1267 45.0438 31.0876 44.0016 32.8532 42.0001C32.9579 41.8938 32.9173 41.7079 32.747 41.6672H32.7485Z" fill="#0269D9" fill-opacity="0.93"/>
</g>
<defs>
<clipPath id="clip0">
<rect width="50" height="50" fill="white"/>
</clipPath>
</defs>
</svg>
