<svg width="58" height="58" viewBox="0 0 58 58" fill="none" xmlns="http://www.w3.org/2000/svg">
<path opacity="0.2" d="M48.9375 30.8126C48.9375 42.4817 32.0722 46.4848 29.3648 47.0521C29.1242 47.1028 28.8758 47.1028 28.6352 47.0521C25.9278 46.4848 9.0625 42.4817 9.0625 30.8126V17.582C9.06252 17.21 9.17702 16.847 9.39046 16.5422C9.6039 16.2375 9.90594 16.0059 10.2556 15.8787L28.3806 9.28802C28.7807 9.14252 29.2193 9.14252 29.6194 9.28802L47.7444 15.8787C48.0941 16.0059 48.3961 16.2375 48.6095 16.5422C48.823 16.847 48.9375 17.21 48.9375 17.582V30.8126Z" fill="#0269D9" fill-opacity="0.93"/>
<path d="M39.875 25.3749C39.875 25.8556 39.684 26.3166 39.3441 26.6565C39.0042 26.9964 38.5432 27.1874 38.0625 27.1874H19.9375C19.4568 27.1874 18.9958 26.9964 18.6559 26.6565C18.316 26.3166 18.125 25.8556 18.125 25.3749C18.125 24.8942 18.316 24.4332 18.6559 24.0933C18.9958 23.7533 19.4568 23.5624 19.9375 23.5624H38.0625C38.5432 23.5624 39.0042 23.7533 39.3441 24.0933C39.684 24.4332 39.875 24.8942 39.875 25.3749ZM38.0625 30.8124H19.9375C19.4568 30.8124 18.9958 31.0033 18.6559 31.3433C18.316 31.6832 18.125 32.1442 18.125 32.6249C18.125 33.1056 18.316 33.5666 18.6559 33.9065C18.9958 34.2464 19.4568 34.4374 19.9375 34.4374H38.0625C38.5432 34.4374 39.0042 34.2464 39.3441 33.9065C39.684 33.5666 39.875 33.1056 39.875 32.6249C39.875 32.1442 39.684 31.6832 39.3441 31.3433C39.0042 31.0033 38.5432 30.8124 38.0625 30.8124ZM58 23.5624V28.9999C57.9978 30.922 57.2333 32.7649 55.8741 34.124C54.515 35.4832 52.6722 36.2477 50.75 36.2499H49.5726C48.0863 39.5079 45.2101 42.3668 41.0466 44.6798C36.2838 47.3256 31.1854 48.5223 29.7366 48.8259C29.2508 48.9286 28.749 48.9286 28.2632 48.8259C26.8146 48.5223 21.7162 47.3256 16.9532 44.6798C12.7899 42.3666 9.91392 39.5081 8.42745 36.2499H7.25C5.32784 36.2477 3.48503 35.4832 2.12586 34.124C0.766689 32.7649 0.00215879 30.922 0 28.9999L0 23.5624C0.00215879 21.6402 0.766689 19.7974 2.12586 18.4382C3.48503 17.0791 5.32784 16.3145 7.25 16.3124H7.48359C7.66724 15.8221 7.95466 15.3773 8.32619 15.0083C8.69771 14.6394 9.14457 14.3552 9.63616 14.175L27.7612 7.58429C28.5615 7.29376 29.4385 7.29376 30.2388 7.58429L48.3638 14.175C48.8554 14.3552 49.3022 14.6395 49.6737 15.0084C50.0452 15.3773 50.3326 15.8221 50.5162 16.3124H50.75C52.6722 16.3145 54.515 17.0791 55.8741 18.4382C57.2333 19.7974 57.9978 21.6402 58 23.5624ZM7.37529 32.6249C7.29224 32.0243 7.25038 31.4187 7.25 30.8124V19.9374C6.28892 19.9385 5.36752 20.3207 4.68793 21.0003C4.00834 21.6799 3.62608 22.6013 3.625 23.5624V28.9999C3.62608 29.961 4.00834 30.8824 4.68793 31.562C5.36752 32.2415 6.28892 32.6238 7.25 32.6249H7.37529ZM47.125 30.8124V17.582L29 10.9911L10.875 17.5818V30.8124C10.875 41.1785 27.1513 44.8892 29.007 45.2782C30.849 44.8892 47.125 41.1785 47.125 30.8124ZM54.375 23.5624C54.3739 22.6013 53.9917 21.6799 53.3121 21.0003C52.6325 20.3207 51.7111 19.9385 50.75 19.9374V30.8124C50.7496 31.4187 50.7078 32.0243 50.6247 32.6249H50.75C51.7111 32.6238 52.6325 32.2415 53.3121 31.562C53.9917 30.8824 54.3739 29.961 54.375 28.9999V23.5624Z" fill="#0269D9" fill-opacity="0.93"/>
</svg>
