<svg width="60" height="60" viewBox="0 0 60 60" fill="none" xmlns="http://www.w3.org/2000/svg">
<path d="M9 32.9999C8.99726 28.1166 10.6964 23.385 13.8053 19.6191C16.9141 15.8531 21.2381 13.2884 26.0335 12.366C30.8289 11.4437 35.7959 12.2214 40.0799 14.5653C44.3639 16.9093 47.697 20.673 49.506 25.2089C50.8728 25.999 52.0076 27.1349 52.7964 28.5025C53.5853 29.8701 54.0004 31.4211 54 32.9999C53.9999 29.0535 53.0266 25.168 51.1663 21.6875C49.306 18.2071 46.6162 15.2391 43.335 13.0464C40.0539 10.8536 36.2826 9.50387 32.3553 9.11659C28.4279 8.7293 24.4657 9.31646 20.8194 10.8261C17.1731 12.3357 13.9554 14.7211 11.4512 17.7712C8.9469 20.8212 7.23342 24.4417 6.46245 28.3121C5.69147 32.1824 5.88681 36.1832 7.03115 39.9601C8.1755 43.7369 10.2335 47.1733 13.023 49.9649C13.3059 50.2381 13.6848 50.3893 14.0781 50.3859C14.4714 50.3825 14.8476 50.2247 15.1257 49.9466C15.4038 49.6685 15.5616 49.2923 15.565 48.899C15.5684 48.5057 15.4172 48.1268 15.144 47.8439C13.1926 45.8963 11.6453 43.5823 10.5909 41.0349C9.53653 38.4875 8.99587 35.7568 9 32.9999ZM30 17.9999C35.091 17.9999 39.588 20.5349 42.3 24.4109C41.3276 24.7171 40.4145 25.1868 39.6 25.7999C38.6117 24.4827 37.3629 23.383 35.9313 22.5692C34.4997 21.7555 32.9159 21.2451 31.2786 21.0698C29.6412 20.8946 27.9853 21.0582 26.4139 21.5505C24.8425 22.0428 23.3892 22.8532 22.1445 23.9314C20.8999 25.0095 19.8904 26.3323 19.179 27.8175C18.4676 29.3026 18.0694 30.9182 18.0094 32.5638C17.9493 34.2094 18.2285 35.8498 18.8297 37.3829C19.431 38.9159 20.3413 40.3088 21.504 41.4749C21.6471 41.6134 21.7611 41.7791 21.8394 41.9622C21.9178 42.1453 21.9589 42.3422 21.9603 42.5414C21.9618 42.7406 21.9235 42.938 21.8478 43.1222C21.7722 43.3065 21.6605 43.4738 21.5195 43.6144C21.3785 43.7551 21.2108 43.8662 21.0264 43.9414C20.842 44.0165 20.6444 44.0542 20.4452 44.0522C20.2461 44.0502 20.0493 44.0085 19.8664 43.9297C19.6835 43.8508 19.5182 43.7363 19.38 43.5929C17.2861 41.4936 15.8613 38.8208 15.2856 35.9121C14.7099 33.0035 15.0092 29.9895 16.1456 27.2508C17.2821 24.5122 19.2046 22.1718 21.6705 20.5252C24.1364 18.8787 27.0349 17.9999 30 17.9999ZM30 26.9999C31.5913 26.9999 33.1174 27.632 34.2426 28.7572C35.3679 29.8824 36 31.4086 36 32.9999C36 34.5912 35.3679 36.1173 34.2426 37.2425C33.1174 38.3677 31.5913 38.9999 30 38.9999C28.4087 38.9999 26.8826 38.3677 25.7574 37.2425C24.6321 36.1173 24 34.5912 24 32.9999C24 31.4086 24.6321 29.8824 25.7574 28.7572C26.8826 27.632 28.4087 26.9999 30 26.9999ZM30 29.9999C29.2044 29.9999 28.4413 30.3159 27.8787 30.8785C27.3161 31.4412 27 32.2042 27 32.9999C27 33.7955 27.3161 34.5586 27.8787 35.1212C28.4413 35.6838 29.2044 35.9999 30 35.9999C30.7957 35.9999 31.5587 35.6838 32.1213 35.1212C32.6839 34.5586 33 33.7955 33 32.9999C33 32.2042 32.6839 31.4412 32.1213 30.8785C31.5587 30.3159 30.7957 29.9999 30 29.9999ZM39 32.9999C39 31.4086 39.6321 29.8824 40.7574 28.7572C41.8826 27.632 43.4087 26.9999 45 26.9999C46.5913 26.9999 48.1174 27.632 49.2426 28.7572C50.3679 29.8824 51 31.4086 51 32.9999C51 34.5912 50.3679 36.1173 49.2426 37.2425C48.1174 38.3677 46.5913 38.9999 45 38.9999C43.4087 38.9999 41.8826 38.3677 40.7574 37.2425C39.6321 36.1173 39 34.5912 39 32.9999ZM37.5 41.9999H52.5C53.6935 41.9999 54.8381 42.474 55.682 43.3179C56.5259 44.1618 57 45.3064 57 46.4999C57 49.8479 55.623 52.5299 53.364 54.3449C51.141 56.1299 48.159 56.9999 45 56.9999C41.841 56.9999 38.859 56.1299 36.636 54.3449C34.38 52.5299 33 49.8479 33 46.4999C33 45.3064 33.4741 44.1618 34.318 43.3179C35.1619 42.474 36.3065 41.9999 37.5 41.9999Z" fill="#0269D9"/>
</svg>
