<svg width="87" height="83" viewBox="0 0 87 83" fill="none" xmlns="http://www.w3.org/2000/svg">
<path d="M7.25 65.7083H79.75V72.625H7.25V65.7083ZM39.875 27.6667H47.125V55.3333H39.875V27.6667ZM28.8731 27.6667H36.5763L25.752 55.2088H18.502L7.67775 27.6667H15.3809L22.127 45.3491L28.8731 27.6667ZM61.625 48.4167V55.3333H54.375V27.6667H68.875C71.7592 27.6667 74.5253 28.7597 76.5648 30.7054C78.6042 32.6511 79.75 35.29 79.75 38.0417C79.75 40.7933 78.6042 43.4322 76.5648 45.3779C74.5253 47.3236 71.7592 48.4167 68.875 48.4167H61.625ZM61.625 34.5833V41.5H68.875C69.8364 41.5 70.7584 41.1356 71.4383 40.4871C72.1181 39.8385 72.5 38.9589 72.5 38.0417C72.5 37.1245 72.1181 36.2448 71.4383 35.5963C70.7584 34.9477 69.8364 34.5833 68.875 34.5833H61.625ZM7.25 10.375H79.75V17.2917H7.25V10.375Z" fill="#0269D9"/>
</svg>
